<svg xmlns="http://www.w3.org/2000/svg" xmlns:xlink="http://www.w3.org/1999/xlink" width="500" zoomAndPan="magnify" viewBox="0 0 375 374.999991" height="500" preserveAspectRatio="xMidYMid meet" version="1.0"><defs><clipPath id="50948703d3"><path d="M 4 43 L 371.433594 43 L 371.433594 304 L 4 304 Z M 4 43 " clip-rule="nonzero"/></clipPath><clipPath id="7f7c86dd2a"><path d="M 335 210 L 371.433594 210 L 371.433594 287 L 335 287 Z M 335 210 " clip-rule="nonzero"/></clipPath><clipPath id="b1cc858ce1"><path d="M 348 221 L 371.433594 221 L 371.433594 287 L 348 287 Z M 348 221 " clip-rule="nonzero"/></clipPath></defs><g clip-path="url(#50948703d3)"><path fill="#ffeed2" d="M 368.683594 210.472656 C 365.753906 201.96875 359.71875 191.511719 347.261719 184.484375 L 347.289062 184.453125 C 352.585938 173.671875 344.449219 167.203125 344.566406 151.816406 C 344.597656 147.269531 343.503906 142.867188 341.519531 138.789062 C 336.753906 129.101562 329.238281 122.222656 321.429688 118.53125 C 324.296875 104.617188 311.632812 101.367188 307.757812 103.644531 C 306.515625 97.5 301.425781 92.417969 295.359375 91.859375 L 295.359375 91.828125 C 300.390625 83.324219 288.585938 71.625 276.039062 78.480469 C 274.5 76.882812 272.871094 75.4375 271.1875 74.078125 C 268.550781 61.289062 270.800781 43.6875 270.800781 43.6875 C 253.019531 55.558594 253.726562 65.011719 253.726562 65.011719 C 248.578125 63.503906 243.429688 62.941406 238.726562 63.445312 C 234.050781 42.414062 211.355469 50.480469 212.421875 63.445312 C 207.597656 64.332031 206.117188 61.523438 203.632812 59.308594 C 195.171875 51.777344 183.835938 63.828125 183.835938 63.828125 C 181.410156 60.816406 178.15625 58.835938 174.902344 57.539062 C 165.847656 53.90625 157 54.878906 148.507812 59.695312 C 131.554688 69.292969 120.132812 88.195312 122.882812 112.652344 L 122.882812 112.679688 C 120.695312 112.179688 118.089844 112.445312 115.28125 113.390625 C 114.097656 106.359375 105.515625 103.96875 105.515625 103.96875 C 105.160156 103.554688 104.835938 103.140625 104.480469 102.757812 C 103.296875 101.429688 102.113281 100.363281 100.929688 99.539062 C 100.929688 81.726562 76.191406 80.753906 74.269531 96.996094 L 74.269531 97.027344 C 65.65625 96.140625 56.898438 103.671875 59.800781 115.015625 C 56.457031 103.9375 38.082031 107.039062 40.003906 120.09375 C 25.710938 116.375 17.367188 135.660156 34.855469 140.089844 C 32.132812 145.40625 29.5 150.222656 23.878906 155.890625 C 20.710938 159.050781 19.171875 163.808594 19.171875 168.296875 C 19.171875 177.1875 20.621094 180.230469 30.980469 188.054688 C 25.5625 188.617188 22.457031 189.0625 22.457031 189.0625 C 22.457031 189.0625 7.898438 193.195312 7.335938 212.777344 C 7.335938 221.726562 6.597656 229.761719 5.917969 237.175781 L 5.886719 237.203125 C 4.882812 247.628906 3.90625 256.785156 5.03125 265.292969 C 6.152344 273.976562 10.976562 281.65625 17.871094 286.824219 C 19.972656 288.417969 22.28125 289.777344 24.707031 290.839844 C 41.867188 298.460938 58.941406 297.101562 78.054688 295.980469 C 84.773438 295.597656 91.519531 295.507812 98.234375 295.65625 C 106.136719 295.832031 114.007812 296.363281 121.847656 297.222656 C 141.082031 299.316406 152.472656 299.464844 161.378906 299.375 C 174.132812 299.257812 181.648438 298.699219 199.550781 302.65625 C 225.261719 307.261719 244.910156 293.382812 280.09375 298.492188 C 282.460938 298.699219 284.679688 298.902344 286.839844 299.050781 C 290.863281 299.316406 294.503906 299.496094 297.875 299.554688 C 334.890625 300.261719 335.335938 288.949219 353.679688 286.941406 C 354.597656 286.855469 355.457031 286.648438 356.285156 286.320312 C 361.847656 284.105469 365.398438 276.722656 368.535156 270.933594 C 370.457031 267.449219 371.433594 263.550781 371.433594 259.59375 L 371.433594 224.652344 C 371.433594 224.652344 371.433594 218.417969 368.683594 210.472656 Z M 368.683594 210.472656 " fill-opacity="1" fill-rule="nonzero"/></g><path fill="#4aaf8f" d="M 246.539062 121.15625 L 246.539062 121.1875 C 239.554688 121.484375 231.59375 121.808594 222.746094 121.039062 C 227.007812 116.90625 228.992188 112.679688 229.316406 108.78125 C 229.316406 108.78125 237.246094 118.527344 246.539062 121.15625 Z M 246.539062 121.15625 " fill-opacity="1" fill-rule="nonzero"/><path fill="#4aaf8f" d="M 307.757812 103.644531 C 311.632812 101.367188 324.296875 104.617188 321.429688 118.527344 C 315.804688 115.871094 310.007812 114.808594 304.976562 115.546875 L 304.976562 115.515625 C 307.875 111.707031 308.558594 107.453125 307.757812 103.644531 Z M 307.757812 103.644531 " fill-opacity="1" fill-rule="nonzero"/><path fill="#4aaf8f" d="M 270.800781 43.6875 C 270.800781 43.6875 268.550781 61.289062 271.1875 74.078125 C 265.859375 69.855469 259.792969 66.78125 253.726562 65.011719 C 253.726562 65.011719 253.019531 55.558594 270.800781 43.6875 Z M 270.800781 43.6875 " fill-opacity="1" fill-rule="nonzero"/><path fill="#53b79a" d="M 207.125 90.261719 C 203.75 90.589844 200.4375 91.769531 197.65625 94.101562 C 196.027344 89.464844 192.003906 86.335938 187.179688 84.710938 C 189.371094 74.816406 187.449219 68.230469 183.835938 63.828125 C 183.835938 63.828125 195.171875 51.777344 203.632812 59.308594 C 206.117188 61.523438 207.597656 64.332031 212.421875 63.445312 C 216.148438 62.796875 220.648438 66.191406 221.445312 74.195312 C 219.050781 78.804688 218.132812 84.945312 219.316406 92.773438 L 219.316406 92.804688 C 215.617188 90.824219 211.296875 89.851562 207.125 90.261719 Z M 207.125 90.261719 " fill-opacity="1" fill-rule="nonzero"/><path fill="#6fceae" d="M 88.738281 126.886719 C 86.015625 125.675781 83.085938 123.847656 79.980469 121.984375 C 77.820312 114.867188 79.710938 107.21875 83.707031 102.285156 C 87.851562 97.058594 94.359375 94.839844 100.929688 99.539062 C 102.113281 100.363281 103.296875 101.429688 104.480469 102.757812 C 104.835938 103.140625 105.160156 103.554688 105.515625 103.96875 C 105.515625 103.96875 114.097656 106.359375 115.277344 113.390625 C 108.917969 115.457031 101.609375 120.921875 96.074219 128.15625 L 96.046875 128.15625 C 93.855469 128.71875 91.402344 128.097656 88.738281 126.917969 Z M 88.738281 126.886719 " fill-opacity="1" fill-rule="nonzero"/><path fill="#6fceae" d="M 192.210938 101.515625 C 200.082031 103.230469 206 109.285156 203.574219 120.09375 L 203.574219 120.125 C 192.003906 120.300781 182.09375 121.925781 173.394531 124.4375 C 173.808594 116.492188 172.03125 111.734375 169.367188 108.988281 L 169.367188 108.960938 C 174.695312 102.433594 184.398438 99.832031 192.210938 101.515625 Z M 192.210938 101.515625 " fill-opacity="1" fill-rule="nonzero"/><path fill="#82387d" d="M 307.757812 103.644531 C 308.558594 107.453125 307.875 111.707031 304.976562 115.515625 L 304.976562 115.546875 C 300.804688 116.105469 297.164062 117.851562 294.472656 120.832031 C 292.933594 117.554688 290.832031 115.101562 288.464844 113.390625 C 289.117188 106.507812 288.199219 100.1875 286.1875 94.515625 C 289.265625 92.300781 292.429688 91.535156 295.359375 91.859375 C 301.425781 92.417969 306.515625 97.5 307.757812 103.644531 Z M 307.757812 103.644531 " fill-opacity="1" fill-rule="nonzero"/><path fill="#894687" d="M 219.316406 92.804688 C 225.46875 96.050781 229.910156 101.960938 229.316406 108.78125 C 228.992188 112.679688 227.007812 116.90625 222.746094 121.039062 C 222.007812 120.980469 221.238281 120.921875 220.46875 120.832031 C 214.460938 120.242188 208.871094 120.035156 203.574219 120.125 L 203.574219 120.09375 C 206 109.285156 200.082031 103.230469 192.210938 101.515625 C 193.601562 98.328125 195.496094 95.875 197.65625 94.101562 C 200.4375 91.769531 203.75 90.589844 207.125 90.261719 C 211.296875 89.851562 215.617188 90.824219 219.316406 92.804688 Z M 219.316406 92.804688 " fill-opacity="1" fill-rule="nonzero"/><path fill="#995899" d="M 169.367188 108.988281 C 172.03125 111.734375 173.808594 116.492188 173.394531 124.4375 C 160.996094 128.011719 151.140625 133.296875 142.707031 138.644531 C 145.429688 130.226562 137.589844 126.742188 137.589844 126.742188 C 137.589844 123.019531 136.019531 120.832031 134.1875 119.59375 C 134.214844 119.445312 134.957031 110.789062 140.546875 107.335938 C 143.242188 105.679688 147.058594 105.238281 152.472656 107.542969 C 153.539062 106.832031 157.207031 105.472656 161.203125 105.621094 C 164.042969 105.710938 167.0625 106.566406 169.367188 108.988281 Z M 169.367188 108.988281 " fill-opacity="1" fill-rule="nonzero"/><path fill="#995899" d="M 40.003906 120.09375 C 38.082031 107.039062 56.457031 103.9375 59.800781 115.015625 C 54.296875 115.457031 48.613281 118.5 42.875 126.148438 C 42.726562 126.355469 42.578125 126.5625 42.460938 126.769531 L 42.429688 126.742188 C 41.070312 124.316406 40.300781 122.074219 40.003906 120.09375 Z M 40.003906 120.09375 " fill-opacity="1" fill-rule="nonzero"/><path fill="#894687" d="M 100.929688 99.539062 C 94.359375 94.839844 87.851562 97.058594 83.707031 102.285156 L 83.679688 102.253906 C 81.042969 99.007812 77.671875 97.351562 74.269531 97.027344 L 74.269531 96.996094 C 76.191406 80.753906 100.929688 81.726562 100.929688 99.539062 Z M 100.929688 99.539062 " fill-opacity="1" fill-rule="nonzero"/><path fill="#655f68" d="M 276.039062 78.480469 C 288.585938 71.625 300.390625 83.324219 295.359375 91.828125 L 295.359375 91.859375 C 292.429688 91.535156 289.265625 92.300781 286.1875 94.515625 C 283.96875 88.34375 280.386719 82.96875 276.039062 78.480469 Z M 276.039062 78.480469 " fill-opacity="1" fill-rule="nonzero"/><path fill="#655f68" d="M 212.421875 63.445312 C 211.355469 50.480469 234.050781 42.414062 238.726562 63.445312 C 231.210938 64.214844 224.847656 67.667969 221.445312 74.195312 C 220.648438 66.191406 216.148438 62.796875 212.421875 63.445312 Z M 212.421875 63.445312 " fill-opacity="1" fill-rule="nonzero"/><path fill="#655f68" d="M 197.65625 94.101562 C 195.496094 95.875 193.601562 98.328125 192.210938 101.515625 C 184.398438 99.832031 174.695312 102.433594 169.367188 108.960938 L 169.367188 108.988281 C 167.0625 106.566406 164.042969 105.710938 161.203125 105.621094 L 161.203125 105.59375 C 158.804688 98.945312 159.78125 93.808594 162.621094 90.144531 C 167.683594 83.648438 178.6875 81.847656 187.179688 84.710938 C 192.003906 86.335938 196.027344 89.464844 197.65625 94.101562 Z M 197.65625 94.101562 " fill-opacity="1" fill-rule="nonzero"/><path fill="#655f68" d="M 42.429688 126.742188 L 42.460938 126.769531 C 38.96875 131.878906 36.867188 136.101562 34.855469 140.089844 C 17.367188 135.660156 25.710938 116.375 40.003906 120.09375 C 40.300781 122.074219 41.070312 124.316406 42.429688 126.742188 Z M 42.429688 126.742188 " fill-opacity="1" fill-rule="nonzero"/><path fill="#655f68" d="M 83.679688 102.253906 L 83.707031 102.285156 C 79.710938 107.21875 77.820312 114.867188 79.980469 121.984375 C 73.824219 118.292969 66.988281 114.453125 59.800781 115.015625 C 56.898438 103.671875 65.65625 96.140625 74.269531 97.027344 C 77.671875 97.351562 81.042969 99.007812 83.679688 102.253906 Z M 83.679688 102.253906 " fill-opacity="1" fill-rule="nonzero"/><path fill="#655f68" d="M 137.589844 126.742188 C 137.589844 126.742188 145.429688 130.226562 142.707031 138.644531 L 142.707031 138.671875 C 121.050781 152.378906 108.738281 166.347656 87.257812 151.726562 L 87.257812 151.699219 C 87.257812 143.132812 90.898438 134.863281 96.046875 128.15625 L 96.074219 128.15625 C 101.609375 120.921875 108.917969 115.457031 115.277344 113.390625 C 118.089844 112.445312 120.695312 112.179688 122.882812 112.679688 C 125.546875 113.210938 127.589844 114.894531 128.710938 117.851562 C 128.710938 117.851562 131.671875 117.851562 134.1875 119.59375 C 136.019531 120.832031 137.589844 123.019531 137.589844 126.742188 Z M 137.589844 126.742188 " fill-opacity="1" fill-rule="nonzero"/><path fill="#655f68" d="M 315.511719 159.820312 C 300.242188 161.355469 289.621094 155.597656 284.058594 151.460938 C 281.304688 149.394531 279.738281 146.117188 279.53125 142.691406 C 278.640625 128.511719 273.90625 123.285156 265.890625 121.570312 C 265 117.289062 267.21875 113.804688 270.832031 111.855469 C 272.074219 111.144531 273.523438 110.613281 275.0625 110.316406 C 279.292969 109.492188 284.292969 110.316406 288.464844 113.390625 C 290.832031 115.101562 292.933594 117.554688 294.472656 120.832031 C 294.472656 120.832031 307.875 119.535156 309.742188 132.117188 C 317.050781 132.175781 324.710938 139.175781 321.929688 150.902344 C 321.308594 153.5 320.15625 156.363281 318.351562 159.4375 C 317.375 159.613281 316.429688 159.730469 315.511719 159.820312 Z M 315.511719 159.820312 " fill-opacity="1" fill-rule="nonzero"/><path fill="#fec4b9" d="M 242.1875 79.984375 C 244.378906 80.015625 247.722656 81.816406 251.273438 84.859375 C 252.929688 86.21875 254.617188 87.871094 256.242188 89.703125 C 256.863281 90.410156 257.484375 91.121094 258.019531 91.828125 L 258.046875 91.828125 C 259.792969 94.042969 261.214844 96.199219 262.277344 98.179688 C 263.226562 99.980469 263.878906 101.636719 264.144531 102.992188 C 264.46875 104.558594 264.292969 105.769531 263.550781 106.449219 C 262.398438 107.484375 260.089844 107.011719 257.308594 105.414062 C 255.089844 104.144531 252.574219 102.195312 250.089844 99.714844 C 249.320312 98.945312 248.550781 98.148438 247.78125 97.292969 C 246.242188 95.578125 244.910156 93.835938 243.785156 92.183594 C 242.070312 89.671875 240.855469 87.308594 240.234375 85.332031 C 239.496094 83.085938 239.523438 81.375 240.472656 80.546875 C 240.886719 80.164062 241.476562 79.984375 242.1875 79.984375 Z M 242.1875 79.984375 " fill-opacity="1" fill-rule="nonzero"/><path fill="#fec4b9" d="M 164.070312 78.539062 C 164.25 81.3125 163.804688 85.152344 162.621094 90.144531 C 159.78125 93.808594 158.804688 98.945312 161.203125 105.59375 L 161.203125 105.621094 C 157.207031 105.472656 153.539062 106.832031 152.472656 107.542969 C 147.058594 105.238281 143.242188 105.679688 140.546875 107.335938 C 141.257812 103.644531 142.175781 100.15625 143.210938 96.9375 C 144.632812 92.597656 146.289062 88.726562 148.035156 85.449219 C 150.519531 80.8125 153.183594 77.328125 155.609375 75.199219 C 158.09375 73.015625 160.34375 72.277344 161.914062 73.191406 C 163.125 73.929688 163.894531 75.671875 164.070312 78.539062 Z M 164.070312 78.539062 " fill-opacity="1" fill-rule="nonzero"/><path fill="#e15c63" d="M 270.832031 111.855469 C 267.21875 113.804688 265 117.289062 265.890625 121.570312 C 260.742188 120.480469 254.230469 120.832031 246.539062 121.1875 L 246.539062 121.15625 C 237.246094 118.527344 229.316406 108.78125 229.316406 108.78125 C 229.910156 101.960938 225.46875 96.050781 219.316406 92.804688 L 219.316406 92.773438 C 218.132812 84.945312 219.050781 78.804688 221.445312 74.195312 C 224.847656 67.667969 231.210938 64.214844 238.726562 63.445312 C 243.429688 62.941406 248.578125 63.503906 253.726562 65.011719 C 259.792969 66.78125 265.859375 69.855469 271.1875 74.078125 C 272.871094 75.4375 274.5 76.882812 276.039062 78.480469 C 280.386719 82.96875 283.96875 88.34375 286.1875 94.515625 C 288.199219 100.1875 289.117188 106.507812 288.464844 113.390625 C 284.292969 110.316406 279.292969 109.492188 275.0625 110.316406 C 273.523438 110.613281 272.074219 111.144531 270.832031 111.855469 Z M 250.089844 99.714844 C 252.574219 102.195312 255.089844 104.144531 257.308594 105.414062 C 260.089844 107.011719 262.398438 107.484375 263.550781 106.449219 C 264.292969 105.769531 264.46875 104.558594 264.144531 102.992188 C 263.878906 101.636719 263.226562 99.980469 262.277344 98.179688 C 261.214844 96.199219 259.792969 94.042969 258.046875 91.828125 L 258.019531 91.828125 C 257.484375 91.121094 256.863281 90.410156 256.242188 89.703125 C 254.617188 87.871094 252.929688 86.21875 251.273438 84.859375 C 247.722656 81.816406 244.378906 80.015625 242.1875 79.984375 C 241.476562 79.984375 240.886719 80.164062 240.472656 80.546875 C 239.523438 81.375 239.496094 83.085938 240.234375 85.332031 C 240.855469 87.308594 242.070312 89.671875 243.785156 92.183594 C 244.910156 93.835938 246.242188 95.578125 247.78125 97.292969 C 248.550781 98.148438 249.320312 98.945312 250.089844 99.714844 Z M 250.089844 99.714844 " fill-opacity="1" fill-rule="nonzero"/><path fill="#e15c63" d="M 164.070312 78.539062 C 163.894531 75.671875 163.125 73.929688 161.914062 73.191406 C 160.34375 72.277344 158.09375 73.015625 155.609375 75.199219 C 153.183594 77.328125 150.519531 80.8125 148.035156 85.449219 C 146.289062 88.726562 144.632812 92.597656 143.210938 96.9375 C 142.175781 100.15625 141.257812 103.644531 140.546875 107.335938 C 134.957031 110.789062 134.214844 119.445312 134.1875 119.59375 C 131.671875 117.851562 128.710938 117.851562 128.710938 117.851562 C 127.589844 114.894531 125.546875 113.210938 122.882812 112.679688 L 122.882812 112.652344 C 120.132812 88.195312 131.554688 69.292969 148.507812 59.695312 C 157 54.878906 165.847656 53.90625 174.902344 57.539062 C 178.15625 58.835938 181.410156 60.816406 183.835938 63.828125 C 187.449219 68.230469 189.371094 74.816406 187.179688 84.710938 C 178.6875 81.847656 167.683594 83.648438 162.621094 90.144531 C 163.804688 85.152344 164.25 81.3125 164.070312 78.539062 Z M 164.070312 78.539062 " fill-opacity="1" fill-rule="nonzero"/><g clip-path="url(#7f7c86dd2a)"><path fill="#e0ac69" d="M 371.433594 224.652344 L 371.433594 259.59375 C 371.433594 263.550781 370.457031 267.449219 368.535156 270.933594 C 365.398438 276.722656 361.847656 284.105469 356.285156 286.320312 C 355.722656 255.898438 346.015625 268.628906 342.140625 254.277344 C 341.695312 252.621094 340.691406 251.117188 339.121094 250.4375 C 331.84375 247.246094 337.316406 236.289062 337.316406 236.289062 C 338.738281 237.144531 340.160156 238.03125 341.667969 238.800781 C 347.675781 241.78125 354.746094 237.320312 354.539062 230.617188 C 354.449219 228.136719 355.011719 225.683594 357.289062 224.800781 C 359.777344 223.792969 362.675781 222.9375 361.492188 217.769531 C 360.839844 214.964844 362.585938 211.332031 368.683594 210.472656 C 371.433594 218.417969 371.433594 224.652344 371.433594 224.652344 Z M 371.433594 224.652344 " fill-opacity="1" fill-rule="nonzero"/></g><path fill="#ffdbac" d="M 347.261719 184.484375 C 359.71875 191.511719 365.753906 201.96875 368.683594 210.472656 C 362.585938 211.332031 360.839844 214.964844 361.492188 217.769531 C 362.675781 222.9375 359.777344 223.792969 357.289062 224.800781 C 355.011719 225.683594 354.449219 228.136719 354.539062 230.617188 C 354.746094 237.320312 347.675781 241.78125 341.667969 238.800781 C 340.160156 238.03125 338.738281 237.144531 337.316406 236.289062 C 332.878906 233.628906 328.765625 231.5625 323.914062 236.671875 C 319.652344 228.078125 313.972656 220.664062 309.976562 215.996094 C 307.492188 213.074219 303.734375 212.246094 299.886719 212.15625 C 285.269531 211.832031 293.171875 204.683594 280.300781 201.199219 C 279.027344 200.875 277.933594 200.195312 277.105469 199.28125 C 275.890625 197.980469 275.269531 196.238281 275.535156 194.378906 C 277.074219 184.070312 270.890625 180.464844 270.890625 180.464844 C 284.058594 178.902344 299.027344 177.777344 316.695312 177.335938 C 323.527344 177.15625 330.394531 177.867188 336.902344 179.964844 C 340.78125 181.203125 344.210938 182.710938 347.261719 184.484375 Z M 347.261719 184.484375 " fill-opacity="1" fill-rule="nonzero"/><path fill="#d6eae8" d="M 87.257812 151.699219 L 87.257812 151.726562 C 108.738281 166.347656 121.050781 152.378906 142.707031 138.671875 L 142.707031 138.644531 C 151.140625 133.296875 160.996094 128.011719 173.394531 124.4375 C 182.09375 121.925781 192.003906 120.300781 203.574219 120.125 C 208.871094 120.035156 214.460938 120.242188 220.46875 120.832031 C 221.238281 120.921875 222.007812 120.980469 222.746094 121.039062 C 231.59375 121.808594 239.554688 121.484375 246.539062 121.1875 C 254.230469 120.832031 260.742188 120.480469 265.890625 121.570312 C 273.90625 123.285156 278.640625 128.511719 279.53125 142.691406 C 279.738281 146.117188 281.304688 149.394531 284.058594 151.460938 C 289.621094 155.597656 300.242188 161.355469 315.511719 159.820312 C 316.429688 159.730469 317.375 159.613281 318.351562 159.4375 C 320.15625 156.363281 321.308594 153.5 321.929688 150.902344 C 324.710938 139.175781 317.050781 132.175781 309.742188 132.117188 C 307.875 119.535156 294.472656 120.832031 294.472656 120.832031 C 297.164062 117.851562 300.804688 116.105469 304.976562 115.546875 C 310.007812 114.808594 315.804688 115.871094 321.429688 118.527344 C 329.238281 122.222656 336.753906 129.101562 341.519531 138.789062 C 343.503906 142.867188 344.597656 147.269531 344.566406 151.816406 C 344.449219 167.203125 352.585938 173.671875 347.289062 184.453125 L 347.261719 184.484375 C 344.210938 182.710938 340.78125 181.203125 336.902344 179.964844 C 330.394531 177.867188 323.527344 177.15625 316.695312 177.335938 C 299.027344 177.777344 284.058594 178.902344 270.890625 180.464844 C 266.214844 181.027344 261.777344 181.617188 257.515625 182.265625 C 215.144531 188.675781 191.5 198.957031 147.441406 200.226562 L 147.441406 200.253906 C 106.019531 182.886719 51.691406 186.019531 30.980469 188.054688 C 20.621094 180.230469 19.171875 177.1875 19.171875 168.296875 C 19.171875 163.808594 20.710938 159.050781 23.878906 155.890625 C 29.5 150.222656 32.132812 145.40625 34.855469 140.089844 C 36.867188 136.101562 38.96875 131.878906 42.460938 126.769531 C 42.578125 126.5625 42.726562 126.355469 42.875 126.148438 C 48.613281 118.5 54.296875 115.457031 59.800781 115.015625 C 66.988281 114.453125 73.824219 118.292969 79.980469 121.984375 C 83.085938 123.847656 86.015625 125.675781 88.738281 126.886719 L 88.738281 126.917969 C 91.402344 128.097656 93.855469 128.71875 96.046875 128.15625 C 90.898438 134.863281 87.257812 143.132812 87.257812 151.699219 Z M 87.257812 151.699219 " fill-opacity="1" fill-rule="nonzero"/><path fill="#e0ac69" d="M 298.761719 272.589844 C 299.53125 273.265625 299.886719 274.269531 299.710938 275.277344 C 298.96875 279.765625 297.253906 291.34375 297.875 299.554688 C 294.503906 299.496094 290.863281 299.316406 286.839844 299.050781 C 292.253906 283.871094 285.269531 268.808594 250.027344 275.128906 C 230.144531 278.40625 214.433594 266.089844 193.367188 268.777344 C 189.753906 269.222656 186.558594 271.613281 185.703125 275.128906 C 185.289062 276.839844 185.316406 278.582031 185.464844 279.914062 C 185.613281 281.269531 184.84375 282.511719 183.570312 283.015625 C 173.746094 286.675781 162.121094 298.609375 161.410156 299.347656 C 161.851562 298.757812 166.617188 292.199219 166.972656 283.191406 C 167.089844 280.148438 168.597656 277.3125 171.203125 275.808594 C 174.339844 274.003906 179.398438 271.378906 175.078125 267.890625 C 172.5625 265.824219 173.363281 264.40625 175.730469 262.664062 C 180.996094 258.765625 185.703125 257.613281 190.585938 257.554688 C 199.3125 257.496094 208.753906 260.890625 223.308594 258.527344 C 227.066406 257.9375 230.886719 258.734375 234.289062 260.417969 C 245.324219 265.855469 256.152344 261.542969 267.574219 260.449219 C 269.234375 260.300781 270.355469 258.734375 270.148438 257.050781 C 269.441406 252 270.355469 247.363281 271.273438 244.261719 C 272.042969 241.722656 271.539062 238.917969 270.03125 236.730469 C 256.332031 216.46875 260.386719 204.359375 263.90625 199.015625 C 265.386719 196.738281 265.238281 193.84375 263.460938 191.808594 C 261.953125 190.09375 260 187.496094 257.515625 182.265625 C 261.777344 181.617188 266.214844 181.027344 270.890625 180.464844 C 270.890625 180.464844 277.074219 184.070312 275.535156 194.378906 C 275.269531 196.238281 275.890625 197.980469 277.101562 199.28125 C 277.101562 199.28125 276.273438 210.03125 270.890625 213.898438 C 270.890625 213.898438 269.765625 222.820312 281.453125 231 C 284.058594 232.832031 285.449219 235.992188 285.09375 239.152344 C 284.558594 244.46875 283.316406 252.472656 280.625 258.382812 C 280.0625 259.59375 280.445312 261.039062 281.484375 261.894531 C 283.878906 263.964844 292.28125 269.308594 298.761719 272.589844 Z M 298.761719 272.589844 " fill-opacity="1" fill-rule="nonzero"/><path fill="#ffdbac" d="M 250.027344 275.128906 C 285.269531 268.808594 292.253906 283.871094 286.839844 299.050781 C 284.679688 298.902344 282.460938 298.699219 280.09375 298.492188 C 244.910156 293.382812 225.261719 307.261719 199.550781 302.65625 C 181.648438 298.699219 174.132812 299.257812 161.378906 299.375 C 161.378906 299.375 161.378906 299.375 161.410156 299.347656 C 162.121094 298.609375 173.746094 286.675781 183.570312 283.015625 C 184.84375 282.511719 185.613281 281.269531 185.464844 279.914062 C 185.316406 278.582031 185.289062 276.839844 185.703125 275.128906 C 186.558594 271.613281 189.753906 269.222656 193.367188 268.777344 C 214.433594 266.089844 230.144531 278.40625 250.027344 275.128906 Z M 250.027344 275.128906 " fill-opacity="1" fill-rule="nonzero"/><path fill="#ffdbac" d="M 178.984375 233.511719 C 178.957031 231.769531 178.867188 230.203125 178.71875 228.785156 C 178.066406 222.464844 174.871094 216.617188 169.78125 212.808594 C 163.066406 207.726562 155.492188 203.59375 147.441406 200.253906 L 147.441406 200.226562 C 191.5 198.957031 215.144531 188.675781 257.515625 182.265625 C 260 187.496094 261.953125 190.09375 263.460938 191.808594 C 265.238281 193.84375 265.386719 196.738281 263.90625 199.015625 C 260.386719 204.359375 256.332031 216.46875 270.03125 236.730469 C 271.539062 238.917969 272.042969 241.722656 271.273438 244.261719 C 270.355469 247.363281 269.441406 252 270.148438 257.050781 C 270.355469 258.734375 269.234375 260.300781 267.574219 260.449219 C 256.152344 261.542969 245.324219 265.855469 234.289062 260.417969 C 230.886719 258.734375 227.066406 257.9375 223.308594 258.527344 C 208.753906 260.890625 199.3125 257.496094 190.585938 257.554688 C 192.507812 246.152344 184.902344 242.226562 180.996094 240.984375 C 179.726562 240.570312 178.867188 239.390625 178.957031 238.03125 C 179.015625 236.4375 179.042969 234.929688 178.984375 233.511719 Z M 178.984375 233.511719 " fill-opacity="1" fill-rule="nonzero"/><path fill="#c3ddda" d="M 68.023438 165.84375 C 91.695312 168.828125 122.261719 175.679688 142.707031 182.265625 C 168.125 190.449219 220.171875 172.785156 230.589844 168.621094 C 232.1875 167.972656 259.023438 157.339844 300.300781 158.933594 C 304.355469 159.878906 309.03125 160.324219 314.238281 159.910156 C 314.269531 159.910156 314.296875 159.910156 314.328125 159.910156 C 324.445312 160.941406 335.277344 162.746094 346.636719 165.578125 C 348.5625 172.433594 350.664062 177.570312 347.289062 184.453125 L 347.261719 184.484375 C 344.210938 182.710938 340.78125 181.203125 336.902344 179.964844 C 330.394531 177.867188 323.527344 177.15625 316.695312 177.335938 C 299.027344 177.777344 284.058594 178.902344 270.890625 180.464844 C 266.214844 181.027344 261.777344 181.617188 257.515625 182.265625 C 215.144531 188.675781 191.5 198.957031 147.441406 200.226562 L 147.441406 200.253906 C 106.019531 182.886719 51.691406 186.019531 30.980469 188.054688 C 20.621094 180.230469 19.171875 177.1875 19.171875 168.296875 C 19.171875 163.808594 20.710938 159.050781 23.878906 155.890625 C 25.386719 154.386719 26.660156 152.9375 27.785156 151.519531 C 27.785156 151.519531 28.167969 163.394531 52.164062 164.429688 C 56.871094 164.632812 62.253906 165.136719 68.023438 165.84375 Z M 68.023438 165.84375 " fill-opacity="1" fill-rule="nonzero"/><g clip-path="url(#b1cc858ce1)"><path fill="#cc9a62" d="M 368.535156 270.933594 C 365.398438 276.722656 361.847656 284.105469 356.285156 286.320312 C 355.929688 267.300781 352.023438 265.144531 348.175781 262.695312 C 359.480469 256.667969 369.71875 244.855469 371.257812 221.992188 C 371.433594 223.675781 371.433594 224.652344 371.433594 224.652344 L 371.433594 259.59375 C 371.433594 263.550781 370.457031 267.449219 368.535156 270.933594 Z M 368.535156 270.933594 " fill-opacity="1" fill-rule="nonzero"/></g><path fill="#eddcc5" d="M 348.175781 262.695312 C 352.023438 265.144531 355.929688 267.300781 356.285156 286.320312 C 355.457031 286.648438 354.597656 286.855469 353.679688 286.941406 C 335.335938 288.949219 334.890625 300.261719 297.875 299.554688 C 297.253906 291.34375 298.96875 279.765625 299.710938 275.277344 C 299.886719 274.269531 299.53125 273.265625 298.761719 272.585938 C 295.65625 270.992188 292.136719 268.984375 289.027344 267.066406 C 305.332031 267.773438 315.511719 268.394531 315.511719 268.394531 C 315.511719 268.394531 332.820312 270.90625 348.175781 262.695312 Z M 348.175781 262.695312 " fill-opacity="1" fill-rule="nonzero"/><path fill="#e5c59e" d="M 161.496094 299.257812 C 162.859375 297.871094 174.042969 286.558594 183.570312 283.015625 C 184.84375 282.511719 185.613281 281.269531 185.464844 279.914062 C 185.316406 278.582031 185.289062 276.839844 185.703125 275.128906 C 186.558594 271.613281 189.753906 269.222656 193.367188 268.777344 C 214.433594 266.089844 230.144531 278.40625 250.027344 275.128906 C 285.269531 268.808594 292.253906 283.871094 286.839844 299.050781 C 284.679688 298.902344 282.460938 298.699219 280.09375 298.492188 C 244.910156 293.382812 225.261719 307.261719 199.550781 302.65625 C 181.648438 298.699219 174.132812 299.257812 161.378906 299.375 C 161.378906 299.375 161.378906 299.375 161.410156 299.347656 C 161.4375 299.316406 161.4375 299.289062 161.496094 299.257812 Z M 161.496094 299.257812 " fill-opacity="1" fill-rule="nonzero"/><path fill="#cc9a62" d="M 175.078125 267.890625 C 173.6875 266.738281 173.304688 265.792969 173.660156 264.878906 C 197.921875 264.582031 222.867188 264.910156 244.910156 265.5 C 261.863281 265.941406 277.074219 266.53125 289.027344 267.066406 C 292.136719 268.984375 295.65625 270.992188 298.761719 272.589844 C 299.53125 273.265625 299.886719 274.269531 299.710938 275.277344 C 298.96875 279.765625 297.253906 291.34375 297.875 299.554688 C 294.503906 299.496094 290.863281 299.316406 286.839844 299.050781 C 292.253906 283.871094 285.269531 268.808594 250.027344 275.128906 C 230.144531 278.40625 214.433594 266.089844 193.367188 268.777344 C 189.753906 269.222656 186.558594 271.613281 185.703125 275.128906 C 185.289062 276.839844 185.316406 278.582031 185.464844 279.914062 C 185.613281 281.269531 184.84375 282.511719 183.570312 283.015625 C 174.042969 286.558594 162.859375 297.871094 161.496094 299.257812 C 162.207031 298.285156 166.617188 291.875 166.972656 283.191406 C 167.089844 280.148438 168.597656 277.3125 171.203125 275.808594 C 174.339844 274.003906 179.398438 271.375 175.078125 267.890625 Z M 175.078125 267.890625 " fill-opacity="1" fill-rule="nonzero"/><path fill="#eddcc5" d="M 175.078125 267.890625 C 173.6875 266.738281 173.304688 265.792969 173.660156 264.878906 C 149.039062 265.203125 125.101562 266.238281 105.515625 268.394531 C 95.367188 269.515625 86.074219 270.136719 77.640625 270.34375 C 61.128906 270.757812 47.816406 269.695312 37.3125 268.011719 C 14.023438 264.257812 4.527344 257.554688 4.527344 257.554688 C 4.554688 260.183594 4.703125 262.78125 5.027344 265.292969 C 6.152344 273.976562 10.976562 281.65625 17.871094 286.824219 C 19.972656 288.417969 22.28125 289.777344 24.707031 290.839844 C 41.867188 298.460938 58.941406 297.101562 78.054688 295.980469 C 84.773438 295.597656 91.519531 295.507812 98.234375 295.65625 C 106.136719 295.832031 114.007812 296.363281 121.847656 297.222656 C 141.082031 299.316406 152.472656 299.464844 161.378906 299.375 C 161.378906 299.375 161.378906 299.375 161.410156 299.347656 C 161.4375 299.316406 161.4375 299.289062 161.496094 299.257812 C 162.207031 298.285156 166.617188 291.875 166.972656 283.191406 C 167.089844 280.148438 168.597656 277.3125 171.203125 275.808594 C 174.339844 274.003906 179.398438 271.375 175.078125 267.890625 Z M 175.078125 267.890625 " fill-opacity="1" fill-rule="nonzero"/><path fill="#d6c3ab" d="M 174.078125 230.371094 C 164.738281 230.722656 160.878906 226.03125 160.6875 225.785156 C 159.703125 224.5 157.867188 224.238281 156.566406 225.203125 C 155.253906 226.175781 154.980469 228.027344 155.953125 229.335938 C 156.171875 229.632812 161.277344 236.296875 172.992188 236.296875 C 173.425781 236.296875 173.871094 236.289062 174.324219 236.269531 C 175.957031 236.199219 177.226562 234.824219 177.15625 233.191406 C 177.089844 231.5625 175.652344 230.3125 174.078125 230.371094 Z M 174.078125 230.371094 " fill-opacity="1" fill-rule="nonzero"/><path fill="#d6c3ab" d="M 123.308594 228.246094 C 122.03125 227.234375 120.167969 227.441406 119.148438 228.714844 C 118.132812 229.988281 118.34375 231.851562 119.621094 232.867188 L 129.652344 240.839844 C 130.195312 241.269531 130.847656 241.484375 131.496094 241.484375 C 132.363281 241.484375 133.226562 241.101562 133.8125 240.371094 C 134.828125 239.09375 134.617188 237.234375 133.339844 236.21875 Z M 123.308594 228.246094 " fill-opacity="1" fill-rule="nonzero"/><path fill="#d6c3ab" d="M 46.699219 249.261719 C 46.464844 249.496094 40.914062 255.089844 38.328125 262.105469 C 37.777344 263.574219 36.8125 264.84375 35.777344 265.488281 C 35.328125 265.761719 34.871094 265.90625 34.398438 265.917969 C 27.761719 266.152344 22.957031 269.695312 18.816406 277.398438 C 18.042969 278.835938 18.582031 280.628906 20.023438 281.398438 C 20.46875 281.636719 20.949219 281.75 21.417969 281.75 C 22.472656 281.75 23.496094 281.1875 24.027344 280.195312 C 27.882812 273.03125 31.390625 271.9375 34.585938 271.824219 C 36.074219 271.78125 37.507812 271.351562 38.875 270.527344 C 41.078125 269.160156 42.851562 266.902344 43.878906 264.164062 C 46.011719 258.382812 50.839844 253.492188 50.890625 253.441406 C 52.039062 252.289062 52.039062 250.417969 50.882812 249.265625 C 49.722656 248.109375 47.851562 248.113281 46.699219 249.261719 Z M 46.699219 249.261719 " fill-opacity="1" fill-rule="nonzero"/><path fill="#d6c3ab" d="M 62.238281 218.238281 C 63.605469 217.351562 64 215.523438 63.109375 214.15625 C 62.21875 212.785156 60.386719 212.390625 59.019531 213.28125 C 47.332031 220.84375 37.585938 222.378906 28.992188 223.734375 C 23.097656 224.664062 17.53125 225.539062 12.363281 228.238281 C 10.917969 228.996094 10.359375 230.78125 11.117188 232.226562 C 11.640625 233.234375 12.671875 233.808594 13.742188 233.808594 C 14.203125 233.808594 14.671875 233.703125 15.109375 233.472656 C 19.414062 231.222656 24.28125 230.457031 29.914062 229.570312 C 38.636719 228.195312 49.496094 226.484375 62.238281 218.238281 Z M 62.238281 218.238281 " fill-opacity="1" fill-rule="nonzero"/><path fill="#d6c3ab" d="M 86.9375 278.644531 C 84.976562 277.867188 84.511719 277.679688 83.894531 275.09375 C 83.03125 271.464844 81.449219 269.0625 79.144531 267.800781 C 77.308594 266.722656 75.414062 266.519531 73.734375 266.347656 C 73.339844 266.304688 72.945312 266.265625 72.5625 266.210938 C 68.46875 265.617188 67.960938 263.726562 66.828125 257.273438 C 66.199219 253.691406 65.414062 249.234375 63.363281 244.285156 C 62.738281 242.78125 61.007812 242.066406 59.496094 242.6875 C 57.984375 243.3125 57.269531 245.039062 57.894531 246.550781 C 59.699219 250.898438 60.386719 254.828125 60.996094 258.296875 C 62.125 264.738281 63.191406 270.828125 71.722656 272.0625 C 72.183594 272.125 72.648438 272.175781 73.117188 272.226562 C 74.351562 272.359375 75.414062 272.46875 76.214844 272.9375 C 76.523438 273.109375 77.457031 273.617188 78.136719 276.46875 C 79.371094 281.621094 81.753906 282.941406 84.738281 284.136719 C 86.636719 284.894531 88.605469 285.679688 91.183594 289.164062 C 91.765625 289.949219 92.660156 290.363281 93.566406 290.363281 C 94.175781 290.363281 94.792969 290.175781 95.320312 289.785156 C 96.636719 288.816406 96.914062 286.964844 95.941406 285.65625 C 92.367188 280.8125 89.226562 279.558594 86.9375 278.644531 Z M 86.9375 278.644531 " fill-opacity="1" fill-rule="nonzero"/><path fill="#edc391" d="M 208.722656 204.613281 C 204.351562 206.6875 202.269531 204.078125 201.730469 203.21875 C 200.894531 201.835938 199.101562 201.378906 197.699219 202.195312 C 196.285156 203.019531 195.816406 204.828125 196.640625 206.234375 C 197.882812 208.347656 201.023438 211.320312 205.640625 211.320312 C 207.324219 211.320312 209.207031 210.921875 211.265625 209.949219 C 212.742188 209.25 213.363281 207.484375 212.664062 206.011719 C 211.964844 204.539062 210.195312 203.921875 208.722656 204.613281 Z M 208.722656 204.613281 " fill-opacity="1" fill-rule="nonzero"/><path fill="#edc391" d="M 236.125 210.734375 C 234.667969 209.996094 232.886719 210.578125 232.152344 212.035156 C 231.109375 214.089844 221.953125 232.175781 220.945312 234.914062 C 220.382812 236.449219 221.171875 238.144531 222.703125 238.703125 C 223.039062 238.828125 223.382812 238.886719 223.722656 238.886719 C 224.929688 238.886719 226.0625 238.144531 226.503906 236.953125 C 227.171875 235.136719 233.558594 222.339844 237.429688 214.703125 C 238.167969 213.246094 237.585938 211.472656 236.125 210.734375 Z M 236.125 210.734375 " fill-opacity="1" fill-rule="nonzero"/><path fill="#c3ddda" d="M 332.441406 154.785156 C 331.53125 153.425781 329.699219 153.0625 328.335938 153.964844 C 326.972656 154.875 324.921875 155.480469 324.164062 155.480469 C 322.53125 155.480469 321.207031 156.796875 321.207031 158.433594 C 321.207031 160.066406 322.53125 161.386719 324.164062 161.386719 C 326.273438 161.386719 329.480469 160.3125 331.625 158.882812 C 332.984375 157.972656 333.347656 156.140625 332.441406 154.785156 Z M 332.441406 154.785156 " fill-opacity="1" fill-rule="nonzero"/><path fill="#c3ddda" d="M 78.480469 148.625 C 79.773438 149.808594 79.90625 149.914062 81.3125 150.835938 L 82.074219 151.335938 C 82.578125 151.667969 83.144531 151.828125 83.703125 151.828125 C 84.664062 151.828125 85.605469 151.363281 86.175781 150.503906 C 87.078125 149.144531 86.703125 147.3125 85.339844 146.410156 L 84.5625 145.898438 C 83.484375 145.195312 83.484375 145.195312 82.476562 144.273438 L 81.25 143.15625 C 80.039062 142.058594 78.167969 142.148438 77.070312 143.363281 C 75.972656 144.570312 76.066406 146.4375 77.277344 147.535156 Z M 78.480469 148.625 " fill-opacity="1" fill-rule="nonzero"/><path fill="#5d5560" d="M 283.90625 117.816406 C 279.921875 115.273438 278.335938 113.972656 277.65625 113.421875 C 277.648438 113.414062 277.414062 113.226562 277.410156 113.21875 C 276.132812 112.207031 274.390625 112.5 273.371094 113.765625 C 272.351562 115.03125 272.65625 116.972656 273.917969 118 C 274.675781 118.617188 276.449219 120.0625 280.714844 122.792969 C 281.210938 123.109375 281.765625 123.261719 282.3125 123.261719 C 283.289062 123.261719 284.242188 122.78125 284.804688 121.902344 C 285.683594 120.523438 285.28125 118.695312 283.90625 117.816406 Z M 283.90625 117.816406 " fill-opacity="1" fill-rule="nonzero"/><path fill="#5d5560" d="M 315.304688 141.601562 C 314.246094 140.351562 312.378906 140.207031 311.132812 141.269531 C 309.890625 142.328125 309.742188 144.191406 310.804688 145.429688 C 310.90625 145.550781 313.347656 148.402344 316.195312 150.746094 C 316.746094 151.199219 317.417969 151.421875 318.078125 151.421875 C 318.929688 151.421875 319.777344 151.058594 320.363281 150.351562 C 321.40625 149.089844 321.222656 147.230469 319.964844 146.191406 C 317.527344 144.183594 315.328125 141.625 315.304688 141.601562 Z M 315.304688 141.601562 " fill-opacity="1" fill-rule="nonzero"/><path fill="#5d5560" d="M 304.964844 143.632812 C 304.148438 142.222656 302.335938 141.742188 300.921875 142.554688 C 299.507812 143.367188 299.023438 145.175781 299.839844 146.589844 C 299.964844 146.800781 302.921875 151.890625 307.507812 156.753906 C 308.089844 157.375 308.875 157.683594 309.664062 157.683594 C 310.390625 157.683594 311.121094 157.417969 311.691406 156.882812 C 312.878906 155.769531 312.9375 153.898438 311.816406 152.710938 C 307.722656 148.363281 304.992188 143.679688 304.964844 143.632812 Z M 304.964844 143.632812 " fill-opacity="1" fill-rule="nonzero"/><path fill="#5d5560" d="M 294.113281 145.050781 C 293.328125 143.625 291.535156 143.09375 290.097656 143.875 C 288.664062 144.660156 288.132812 146.453125 288.917969 147.886719 C 289 148.03125 290.929688 151.554688 293.289062 155.078125 C 293.859375 155.933594 294.796875 156.394531 295.753906 156.394531 C 296.316406 156.394531 296.886719 156.230469 297.394531 155.898438 C 298.75 154.992188 299.117188 153.15625 298.210938 151.800781 C 296.003906 148.5 294.128906 145.085938 294.113281 145.050781 Z M 294.113281 145.050781 " fill-opacity="1" fill-rule="nonzero"/><path fill="#5d5560" d="M 132.789062 127.390625 L 128.675781 131.546875 C 127.527344 132.710938 127.542969 134.578125 128.703125 135.726562 C 129.28125 136.292969 130.03125 136.574219 130.785156 136.574219 C 131.546875 136.574219 132.3125 136.28125 132.890625 135.695312 L 137.003906 131.535156 C 138.152344 130.375 138.140625 128.507812 136.976562 127.359375 C 135.808594 126.214844 133.9375 126.226562 132.789062 127.390625 Z M 132.789062 127.390625 " fill-opacity="1" fill-rule="nonzero"/><path fill="#c3ddda" d="M 99.09375 171.28125 C 82.070312 171.28125 73.878906 167.132812 69.976562 163.625 C 67.121094 161.125 66.523438 158.917969 66.480469 158.753906 C 66.144531 157.183594 64.597656 156.171875 63.011719 156.476562 C 61.410156 156.792969 60.367188 158.347656 60.683594 159.949219 C 60.765625 160.371094 61.628906 164.183594 66.046875 168.039062 C 70.6875 172.214844 80.191406 177.1875 99.09375 177.1875 C 100.726562 177.1875 102.054688 175.867188 102.054688 174.234375 C 102.054688 172.601562 100.726562 171.28125 99.09375 171.28125 Z M 99.09375 171.28125 " fill-opacity="1" fill-rule="nonzero"/><path fill="#c3ddda" d="M 163.96875 146.339844 C 163.359375 144.960938 161.78125 144.25 160.328125 144.730469 C 158.777344 145.246094 157.9375 146.917969 158.453125 148.464844 C 158.640625 149.035156 159.492188 151 162.4375 152.367188 C 164.351562 153.25 166.730469 153.6875 169.570312 153.6875 C 175.824219 153.6875 184.3125 151.550781 194.941406 147.292969 C 196.460938 146.6875 197.195312 144.964844 196.585938 143.449219 C 195.976562 141.9375 194.253906 141.203125 192.738281 141.808594 C 169.050781 151.304688 164.292969 146.714844 163.96875 146.339844 Z M 163.96875 146.339844 " fill-opacity="1" fill-rule="nonzero"/><path fill="#c3ddda" d="M 171.234375 171.09375 C 170.945312 170.886719 170.183594 170.335938 170.136719 168.230469 C 170.097656 166.597656 168.78125 165.226562 167.109375 165.34375 C 165.476562 165.382812 164.183594 166.734375 164.21875 168.363281 C 164.296875 171.707031 165.488281 174.234375 167.765625 175.875 C 169.695312 177.269531 172.199219 177.851562 175.199219 177.851562 C 181.53125 177.851562 190.058594 175.265625 200 172.25 C 210.71875 168.996094 222.867188 165.3125 232.300781 165.3125 C 233.9375 165.3125 235.261719 163.992188 235.261719 162.355469 C 235.261719 160.722656 233.9375 159.402344 232.300781 159.402344 C 221.984375 159.402344 209.390625 163.226562 198.277344 166.597656 C 187.300781 169.929688 174.859375 173.695312 171.234375 171.09375 Z M 171.234375 171.09375 " fill-opacity="1" fill-rule="nonzero"/><path fill="#c3ddda" d="M 270.800781 150.488281 C 249.613281 150.488281 244.160156 138.0625 243.921875 137.503906 C 243.3125 135.996094 241.597656 135.261719 240.085938 135.871094 C 238.570312 136.472656 237.828125 138.191406 238.433594 139.707031 C 238.707031 140.386719 245.386719 156.394531 270.800781 156.394531 C 272.433594 156.394531 273.761719 155.074219 273.761719 153.441406 C 273.761719 151.808594 272.433594 150.488281 270.800781 150.488281 Z M 270.800781 150.488281 " fill-opacity="1" fill-rule="nonzero"/><path fill="#894687" d="M 157.855469 122.664062 C 158.085938 122.664062 158.316406 122.636719 158.550781 122.585938 C 160.140625 122.199219 161.121094 120.605469 160.734375 119.019531 C 159.546875 114.078125 154.859375 112.65625 152.554688 112.59375 C 150.96875 112.664062 149.605469 113.8125 149.539062 115.425781 C 149.472656 117.039062 150.738281 118.40625 152.355469 118.496094 C 152.722656 118.515625 154.574219 118.703125 154.980469 120.402344 C 155.308594 121.757812 156.519531 122.664062 157.855469 122.664062 Z M 157.855469 122.664062 " fill-opacity="1" fill-rule="nonzero"/><path fill="#d14b62" d="M 238.386719 77.164062 C 238.734375 78.492188 239.933594 79.367188 241.246094 79.367188 C 241.496094 79.367188 241.746094 79.335938 242 79.269531 C 243.578125 78.855469 244.527344 77.242188 244.109375 75.664062 L 243.214844 72.265625 C 242.796875 70.6875 241.183594 69.742188 239.601562 70.160156 C 238.023438 70.570312 237.074219 72.1875 237.492188 73.765625 Z M 238.386719 77.164062 " fill-opacity="1" fill-rule="nonzero"/><path fill="#d14b62" d="M 232.246094 88.285156 L 236.832031 88.285156 C 238.464844 88.285156 239.792969 86.964844 239.792969 85.332031 C 239.792969 83.699219 238.464844 82.378906 236.832031 82.378906 L 232.246094 82.378906 C 230.613281 82.378906 229.289062 83.699219 229.289062 85.332031 C 229.289062 86.964844 230.613281 88.285156 232.246094 88.285156 Z M 232.246094 88.285156 " fill-opacity="1" fill-rule="nonzero"/><path fill="#d14b62" d="M 243.105469 96.527344 C 244.378906 95.503906 244.574219 93.640625 243.550781 92.375 C 242.523438 91.109375 240.660156 90.90625 239.390625 91.933594 L 236.097656 94.582031 C 234.828125 95.605469 234.628906 97.46875 235.65625 98.734375 C 236.242188 99.457031 237.097656 99.832031 237.960938 99.832031 C 238.613281 99.832031 239.269531 99.621094 239.816406 99.175781 Z M 243.105469 96.527344 " fill-opacity="1" fill-rule="nonzero"/><path fill="#d14b62" d="M 242.792969 107.886719 C 243.355469 108.390625 244.0625 108.636719 244.761719 108.636719 C 245.574219 108.636719 246.390625 108.300781 246.972656 107.644531 L 250.066406 104.179688 C 251.152344 102.960938 251.042969 101.089844 249.820312 100.007812 C 248.601562 98.917969 246.730469 99.03125 245.644531 100.25 L 242.550781 103.71875 C 241.464844 104.933594 241.574219 106.804688 242.792969 107.886719 Z M 242.792969 107.886719 " fill-opacity="1" fill-rule="nonzero"/><path fill="#d14b62" d="M 253.554688 108.027344 L 252.730469 111.128906 C 252.3125 112.703125 253.253906 114.320312 254.835938 114.738281 C 255.089844 114.804688 255.34375 114.835938 255.59375 114.835938 C 256.902344 114.835938 258.101562 113.964844 258.449219 112.640625 L 259.273438 109.539062 C 259.691406 107.960938 258.75 106.347656 257.167969 105.925781 C 255.585938 105.511719 253.96875 106.449219 253.554688 108.027344 Z M 253.554688 108.027344 " fill-opacity="1" fill-rule="nonzero"/><path fill="#d14b62" d="M 269.355469 102.25 C 267.925781 101.453125 266.125 101.960938 265.328125 103.390625 C 264.53125 104.8125 265.042969 106.613281 266.472656 107.40625 C 268.550781 108.5625 269.15625 109.003906 270.246094 109.878906 C 270.796875 110.3125 271.449219 110.527344 272.097656 110.527344 C 272.960938 110.527344 273.820312 110.148438 274.40625 109.421875 C 275.429688 108.152344 275.226562 106.289062 273.949219 105.269531 C 272.664062 104.238281 271.792969 103.609375 269.355469 102.25 Z M 269.355469 102.25 " fill-opacity="1" fill-rule="nonzero"/><path fill="#d14b62" d="M 263.171875 98.210938 C 263.296875 99.753906 264.589844 100.921875 266.117188 100.921875 C 266.195312 100.921875 266.28125 100.921875 266.363281 100.914062 C 266.390625 100.910156 269.164062 100.683594 272.703125 100.570312 C 274.335938 100.515625 275.617188 99.152344 275.566406 97.523438 C 275.511719 95.894531 274.167969 94.542969 272.511719 94.667969 C 268.792969 94.785156 265.878906 95.023438 265.878906 95.023438 C 264.246094 95.160156 263.035156 96.585938 263.171875 98.210938 Z M 263.171875 98.210938 " fill-opacity="1" fill-rule="nonzero"/><path fill="#d14b62" d="M 251.542969 83.914062 C 251.816406 83.988281 252.09375 84.027344 252.363281 84.027344 C 253.648438 84.027344 254.832031 83.1875 255.203125 81.894531 L 256.570312 77.167969 C 257.019531 75.597656 256.117188 73.960938 254.542969 73.511719 C 252.972656 73.066406 251.335938 73.960938 250.882812 75.53125 L 249.515625 80.257812 C 249.070312 81.824219 249.976562 83.460938 251.542969 83.914062 Z M 251.542969 83.914062 " fill-opacity="1" fill-rule="nonzero"/><path fill="#d14b62" d="M 261.386719 93.121094 C 261.828125 93.121094 262.277344 93.023438 262.703125 92.8125 L 268.570312 89.894531 C 270.03125 89.167969 270.625 87.394531 269.898438 85.933594 C 269.171875 84.476562 267.394531 83.875 265.929688 84.609375 L 260.0625 87.527344 C 258.601562 88.253906 258.007812 90.03125 258.734375 91.488281 C 259.253906 92.523438 260.296875 93.121094 261.386719 93.121094 Z M 261.386719 93.121094 " fill-opacity="1" fill-rule="nonzero"/><path fill="#5d5560" d="M 122.191406 128.273438 L 127.816406 122.832031 C 128.988281 121.695312 129.019531 119.824219 127.882812 118.65625 C 126.746094 117.484375 124.871094 117.457031 123.699219 118.589844 L 118.074219 124.027344 C 116.902344 125.164062 116.867188 127.035156 118.007812 128.207031 C 118.585938 128.804688 119.359375 129.105469 120.132812 129.105469 C 120.871094 129.101562 121.613281 128.824219 122.191406 128.273438 Z M 122.191406 128.273438 " fill-opacity="1" fill-rule="nonzero"/><path fill="#d14b62" d="M 129.3125 104.300781 C 129.984375 106.066406 130.472656 107.335938 130.800781 109.851562 C 130.996094 111.339844 132.269531 112.425781 133.730469 112.425781 C 133.859375 112.425781 133.984375 112.414062 134.117188 112.398438 C 135.738281 112.191406 136.878906 110.707031 136.667969 109.089844 C 136.25 105.875 135.5625 104.085938 134.835938 102.1875 C 134.628906 101.660156 134.414062 101.101562 134.191406 100.46875 C 133.644531 98.929688 131.953125 98.121094 130.417969 98.671875 C 128.875 99.214844 128.070312 100.902344 128.613281 102.441406 C 128.859375 103.125 129.089844 103.730469 129.3125 104.300781 Z M 129.3125 104.300781 " fill-opacity="1" fill-rule="nonzero"/><path fill="#d14b62" d="M 138.984375 86.917969 C 137.96875 85.636719 136.105469 85.4375 134.828125 86.449219 C 133.550781 87.464844 133.34375 89.324219 134.363281 90.597656 L 138.238281 95.449219 C 138.820312 96.183594 139.683594 96.5625 140.550781 96.5625 C 141.199219 96.5625 141.851562 96.355469 142.394531 95.917969 C 143.671875 94.902344 143.878906 93.042969 142.863281 91.769531 Z M 138.984375 86.917969 " fill-opacity="1" fill-rule="nonzero"/><path fill="#d14b62" d="M 146.667969 74.101562 C 146.0625 72.589844 144.34375 71.847656 142.820312 72.457031 C 141.304688 73.066406 140.566406 74.785156 141.175781 76.300781 L 143.765625 82.746094 C 144.230469 83.902344 145.339844 84.601562 146.515625 84.601562 C 146.878906 84.601562 147.253906 84.535156 147.613281 84.390625 C 149.132812 83.785156 149.871094 82.0625 149.257812 80.550781 Z M 146.667969 74.101562 " fill-opacity="1" fill-rule="nonzero"/><path fill="#d14b62" d="M 151.679688 71.800781 C 152.023438 73.132812 153.226562 74.019531 154.542969 74.019531 C 154.789062 74.019531 155.035156 73.988281 155.285156 73.925781 C 156.867188 73.519531 157.816406 71.90625 157.410156 70.328125 L 156.347656 66.199219 C 155.9375 64.621094 154.335938 63.667969 152.742188 64.070312 C 151.160156 64.480469 150.210938 66.089844 150.613281 67.667969 Z M 151.679688 71.800781 " fill-opacity="1" fill-rule="nonzero"/><path fill="#d14b62" d="M 165.109375 78.015625 C 165.628906 79.046875 166.671875 79.644531 167.757812 79.644531 C 168.203125 79.644531 168.660156 79.546875 169.085938 79.332031 L 172.769531 77.488281 C 174.230469 76.753906 174.820312 74.980469 174.085938 73.523438 C 173.351562 72.066406 171.574219 71.472656 170.113281 72.207031 L 166.429688 74.054688 C 164.96875 74.785156 164.375 76.558594 165.109375 78.015625 Z M 165.109375 78.015625 " fill-opacity="1" fill-rule="nonzero"/><path fill="#d14b62" d="M 162.296875 72.402344 C 162.714844 72.605469 163.15625 72.703125 163.585938 72.703125 C 164.683594 72.703125 165.742188 72.089844 166.25 71.039062 L 168.007812 67.421875 C 168.71875 65.957031 168.109375 64.1875 166.636719 63.476562 C 165.167969 62.761719 163.394531 63.375 162.683594 64.84375 L 160.925781 68.460938 C 160.214844 69.925781 160.828125 71.6875 162.296875 72.402344 Z M 162.296875 72.402344 " fill-opacity="1" fill-rule="nonzero"/><path fill="#604533" d="M 96.671875 93.144531 C 97.136719 93.414062 97.648438 93.542969 98.148438 93.542969 C 99.167969 93.542969 100.160156 93.011719 100.710938 92.066406 C 100.957031 91.632812 106.796875 81.453125 107.550781 72.007812 C 107.679688 70.382812 106.464844 68.960938 104.835938 68.828125 C 103.164062 68.707031 101.785156 69.917969 101.652344 71.539062 C 101.003906 79.640625 95.640625 89.019531 95.585938 89.113281 C 94.769531 90.523438 95.257812 92.335938 96.671875 93.144531 Z M 96.671875 93.144531 " fill-opacity="1" fill-rule="nonzero"/><path fill="#53b79a" d="M 88.261719 125.082031 C 88.34375 125.082031 88.425781 125.082031 88.511719 125.070312 C 90.136719 124.9375 91.347656 123.507812 91.210938 121.882812 C 90.707031 115.863281 93.246094 113.371094 93.425781 113.203125 C 94.644531 112.15625 94.796875 110.316406 93.761719 109.082031 C 92.714844 107.824219 90.851562 107.660156 89.597656 108.703125 C 89.078125 109.132812 84.542969 113.1875 85.3125 122.378906 C 85.445312 123.917969 86.738281 125.082031 88.261719 125.082031 Z M 88.261719 125.082031 " fill-opacity="1" fill-rule="nonzero"/><path fill="#4aaf8f" d="M 200.558594 87.609375 C 201.140625 88.402344 202.039062 88.820312 202.953125 88.820312 C 203.558594 88.820312 204.167969 88.632812 204.695312 88.253906 C 206.015625 87.289062 206.300781 85.441406 205.339844 84.125 C 202.816406 80.679688 200.847656 76.621094 200.828125 76.578125 C 200.121094 75.113281 198.355469 74.496094 196.878906 75.199219 C 195.40625 75.90625 194.785156 77.671875 195.496094 79.140625 C 195.582031 79.324219 197.710938 83.714844 200.558594 87.609375 Z M 200.558594 87.609375 " fill-opacity="1" fill-rule="nonzero"/><path fill="#4aaf8f" d="M 207.386719 85.148438 C 207.847656 86.308594 208.960938 87.015625 210.140625 87.015625 C 210.5 87.015625 210.871094 86.949219 211.226562 86.808594 C 212.746094 86.207031 213.488281 84.492188 212.890625 82.972656 C 211.648438 79.839844 210.859375 76.730469 210.851562 76.699219 C 210.457031 75.117188 208.855469 74.160156 207.265625 74.550781 C 205.679688 74.945312 204.714844 76.550781 205.113281 78.132812 C 205.148438 78.273438 205.996094 81.640625 207.386719 85.148438 Z M 207.386719 85.148438 " fill-opacity="1" fill-rule="nonzero"/><path fill="#604533" d="M 124.234375 67.34375 C 124.59375 65.753906 123.589844 64.175781 122 63.8125 C 120.398438 63.460938 118.820312 64.457031 118.460938 66.046875 L 116.683594 73.902344 C 114.714844 82.65625 111.117188 90.8125 105.992188 98.140625 L 103.089844 102.277344 C 102.15625 103.609375 102.480469 105.453125 103.820312 106.390625 C 104.335938 106.75 104.929688 106.925781 105.511719 106.925781 C 106.445312 106.925781 107.363281 106.488281 107.9375 105.664062 L 110.839844 101.527344 C 116.40625 93.5625 120.316406 84.703125 122.453125 75.203125 Z M 124.234375 67.34375 " fill-opacity="1" fill-rule="nonzero"/></svg>